<svg xmlns="http://www.w3.org/2000/svg" viewBox="0 0 24 24" id="wikipedia"><path fill="#FF6B00" d="M23.5 3h-4a.5.5 0 0 0-.5.5v1a.5.5 0 0 0 .5.5h1l-4.96 10.26-1.78-4.46L16.57 5h.93a.5.5 0 0 0 .5-.5v-1a.5.5 0 0 0-.5-.5h-4a.5.5 0 0 0-.5.5v1a.5.5 0 0 0 .5.5h.5l-1.41 2.87L11.44 5H12a.5.5 0 0 0 .5-.5v-1A.5.5 0 0 0 12 3H7a.5.5 0 0 0-.5.5v1A.5.5 0 0 0 7 5h1.36l2.53 6.42L9 15.26 4.94 5h.56a.5.5 0 0 0 .5-.5v-1a.5.5 0 0 0-.5-.5h-5a.5.5 0 0 0-.5.5v1a.5.5 0 0 0 .5.5h1.36L8 20.68a.5.5 0 0 0 .92 0L12 14.35l2.5 6.34a.5.5 0 0 0 .5.31.5.5 0 0 0 .45-.28L23.07 5h.43a.5.5 0 0 0 .5-.5v-1a.5.5 0 0 0-.5-.5Z"></path></svg>